# xmcd
#
# Track frame offsets: 
#        150
#        62607
#        109200
#        152147
#        214085
#
# Disc length: 3260 seconds
#
# Revision: 57
# Processed by: cddbd v1.5.2PL0 Copyright (c) Steve Scherf et al.
# Submitted via: ExactAudioCopy v0.99pb4
#
DISCID=400cba05
DTITLE=Dream Theater - Six Degrees Of Inner Turbulence [CD 01)
DYEAR=2002
DGENRE=Progressive Metal
TTITLE0=The Glass Prison
TTITLE1=Blind Faith
TTITLE2=Misunderstood
TTITLE3=The Great Debate
TTITLE4=Disappear
EXTD=Produced by: Mike Portnoy and John Petrucci [Elektra]
EXTT0=
EXTT1=
EXTT2=
EXTT3=
EXTT4=
PLAYORDER=
